<svg width="50" height="50" viewBox="0 0 50 50" fill="none" xmlns="http://www.w3.org/2000/svg">
<path d="M50 25C50 21.5975 48.105 18.46 44.9225 15.945C44.9175 15.9425 44.9125 15.9425 44.91 15.9375C44.005 7.0075 35.4425 0 25 0C14.5575 0 5.995 7.0075 5.09 15.9375C5.0875 15.9425 5.0825 15.9425 5.0775 15.945C1.895 18.46 0 21.5975 0 25C0 32.78 9.8675 39.1725 22.5 39.925V42.5C22.5 45 17.9475 47.2775 17.9475 47.2775C17.8263 47.3407 17.732 47.4456 17.6819 47.5728C17.6318 47.7001 17.6294 47.8411 17.675 47.97C17.675 47.97 18.4375 50 20 50C21.5625 50 22.81 48.75 25.935 48.75C29.06 48.75 32.0325 49.83 32.0325 49.83C32.1737 49.8732 32.3237 49.8791 32.4678 49.8471C32.6119 49.8151 32.7453 49.7463 32.855 49.6475L34.6475 47.855C34.8425 47.66 34.7925 47.4225 34.5325 47.325C34.5325 47.325 30.0025 45.625 30.0025 42.5V39.6975C41.4125 38.31 50 32.2575 50 25ZM5 25C5 22.4525 6.92 20.1375 10.055 18.3725C10.03 18.0825 10 17.7925 10 17.5C10 10.595 16.7175 5 25 5C33.2825 5 40 10.595 40 17.5C40 17.7925 39.97 18.0825 39.9475 18.3725C43.08 20.1375 45 22.4525 45 25C45 29.66 38.6225 33.56 30.0025 34.6725V33.0025C30.0192 32.6875 30.1477 32.3887 30.365 32.16L34.9475 27.845C35.165 27.6162 35.2943 27.3177 35.3125 27.0025V24.875C35.3125 24.6 35.1175 24.4875 34.8825 24.6275L30.435 27.245C30.195 27.385 30.0025 27.275 30.0025 26.9975V18C30.0025 17.725 29.79 17.57 29.5275 17.6575L22.975 19.8425C22.8411 19.8946 22.7251 19.9845 22.6412 20.1012C22.5574 20.2179 22.5092 20.3564 22.5025 20.5V27C22.5025 27.275 22.305 27.395 22.06 27.2675L17.005 24.6075C16.8755 24.5465 16.7308 24.5253 16.5893 24.5467C16.4477 24.5681 16.3157 24.631 16.21 24.7275L15.355 25.5825C15.309 25.6274 15.2729 25.6813 15.2489 25.7409C15.225 25.8006 15.2137 25.8645 15.2158 25.9287C15.2179 25.9929 15.2334 26.056 15.2612 26.1139C15.2891 26.1718 15.3287 26.2232 15.3775 26.265L22.1275 32.1675C22.335 32.35 22.5025 32.7225 22.5025 32.9975V34.91C12.64 34.2975 5 30.1 5 25Z" fill="#F2C137"/>
</svg>
