<svg width="50" height="50" viewBox="0 0 50 50" fill="none" xmlns="http://www.w3.org/2000/svg">
<path d="M49.5421 7.08681L42.9131 0.457773C42.3027 -0.152591 41.3134 -0.152591 40.7031 0.457773L38.4931 2.66778C37.8827 3.27814 37.8827 4.26742 38.4931 4.87778L31.0057 12.3652C26.4568 10.4414 21.0055 11.3174 17.2974 15.0245L1.83035 30.4916C-0.610118 32.932 -0.610118 36.8901 1.83035 39.3306L10.6694 48.1696C13.1098 50.6101 17.0679 50.6101 19.5084 48.1696L34.9764 32.7016C38.6835 28.9945 39.5595 23.5422 37.6357 18.9933L45.1231 11.5058C45.7334 12.1162 46.7227 12.1162 47.3331 11.5058L49.5431 9.29584C50.1525 8.68645 50.1525 7.69717 49.5421 7.08681ZM17.5015 41.3375L8.6625 32.4984L20.5807 20.5802L29.4197 29.4193L17.5015 41.3375Z" fill="#F2C137"/>
</svg>
