<svg width="52" height="52" viewBox="0 0 52 52" fill="none" xmlns="http://www.w3.org/2000/svg">
<path d="M31.9155 8.20192L32.2048 8.55446L32.5824 8.29879C33.1277 7.92955 33.7078 7.75 34.3333 7.75C35.1088 7.75 35.7679 8.01073 36.3351 8.5425C36.8995 9.07161 37.1667 9.68232 37.1667 10.3994C37.1667 11.116 36.9001 11.7161 36.34 12.2274C35.7754 12.7428 35.1068 13 34.3073 13C33.5079 13 32.8507 12.743 32.3055 12.2319C31.7638 11.724 31.5 11.1154 31.5 10.375V9.54607L30.7668 9.93273L29.9334 10.3722C29.331 10.6899 28.7395 11.1252 28.158 11.6704C27.5662 12.2252 27.1667 12.8373 27.1667 13.5C27.1667 14.2358 26.8979 14.8432 26.34 15.3524C25.7735 15.8695 25.1129 16.125 24.3333 16.125C23.6682 16.125 23.0942 15.9429 22.5934 15.5839C22.0958 15.2272 21.7845 14.7727 21.6409 14.207L21.5073 13.6811L20.994 13.8571C19.5927 14.3378 18.4896 14.5625 17.6667 14.5625H17.1667V15.0625C17.1667 15.3372 17.0667 15.5744 16.8299 15.7964C16.5925 16.0189 16.3241 16.125 16 16.125C15.6759 16.125 15.4075 16.0189 15.1701 15.7964C14.9333 15.5744 14.8333 15.3372 14.8333 15.0625C14.8333 14.9374 14.8715 14.7741 14.9828 14.5654L15.1171 14.3135L14.9686 14.0698C14.8873 13.9364 14.8337 13.7551 14.8333 13.5025C14.8335 13.5013 14.8343 13.4899 14.8386 13.4654C14.8442 13.4344 14.8536 13.3918 14.8685 13.3359L15.107 12.4416L14.2283 12.7323C13.6828 12.9129 13.1629 13 12.6667 13C11.7509 13 10.9022 12.7645 10.1114 12.29L9.80689 12.1073L9.53407 12.3346C9.00128 12.7786 8.38613 13 7.66667 13C6.84717 13 6.18215 12.7413 5.63885 12.2319C5.09494 11.722 4.83333 11.1206 4.83333 10.3994C4.83333 9.67774 5.09549 9.06573 5.64367 8.53792C6.18489 8.01681 6.84429 7.75274 7.65401 7.75002C7.6542 7.75005 7.65439 7.75008 7.65458 7.75011C7.66479 7.75171 7.68236 7.75502 7.70882 7.76122C7.78511 7.7791 7.88389 7.79883 7.97917 7.79883H8.32801L8.44843 7.47143C8.75896 6.62717 9.29163 5.94468 10.0597 5.41568C10.8233 4.88971 11.6871 4.625 12.6667 4.625C13.9344 4.625 14.991 5.03634 15.8664 5.85696C16.7404 6.6764 17.1667 7.65225 17.1667 8.8125H17.6667H18.1667C18.1667 7.61606 18.5954 6.63505 19.4637 5.8356C20.3952 4.97789 21.1814 4.625 21.8333 4.625C22.5341 4.625 23.0044 4.82185 23.3202 5.15342L23.6823 4.80859L23.3202 5.15342C23.6154 5.46332 23.8333 6.10774 23.8333 7.25V7.49414H24.3333H24.8333V7.25C24.8333 6.54747 25.0933 5.9428 25.6437 5.41292C26.1896 4.88726 26.8452 4.625 27.6406 4.625C28.4362 4.625 29.1032 4.88757 29.6684 5.4175C30.2351 5.94871 30.5 6.5521 30.5 7.25V7.75H31C31.3625 7.75 31.6577 7.8877 31.9155 8.20192ZM40.9139 13.0029C41.3029 12.1697 41.5 11.2925 41.5 10.375C41.5 8.50624 40.7878 6.90283 39.3888 5.59129C37.9909 4.28076 36.2963 3.625 34.3333 3.625C34.1988 3.625 33.9813 3.64637 33.6973 3.68346C33.0806 2.76165 32.2706 2.01482 31.2743 1.4449C30.1721 0.814388 28.9663 0.5 27.6667 0.5C26.6281 0.5 25.6225 0.711675 24.6534 1.13173C23.7498 0.712126 22.8084 0.5 21.8333 0.5C20.2203 0.5 18.811 0.992325 17.6284 1.97792C16.1349 0.993863 14.4771 0.5 12.6667 0.5C11.2005 0.5 9.8205 0.8272 8.53363 1.48212C7.306 2.1069 6.28923 2.94107 5.49132 3.98492C4.07997 4.4141 2.90181 5.19406 1.96902 6.3208C0.992933 7.49985 0.5 8.85741 0.5 10.375C0.5 11.6088 0.83063 12.7446 1.49103 13.7706C2.09153 14.7035 2.87428 15.4592 3.83333 16.0353V44.75C3.83333 46.6188 4.54551 48.2222 5.94449 49.5337C7.34238 50.8442 9.03706 51.5 11 51.5H31C32.9629 51.5 34.6576 50.8442 36.0555 49.5337C37.4313 48.2439 38.1428 46.6719 38.1661 44.8428C39.1285 45.113 40.0735 45.25 41 45.25C43.8659 45.25 46.3409 44.2931 48.3976 42.3819C50.458 40.4674 51.5 38.1225 51.5 35.375V22.875C51.5 20.129 50.4679 17.7845 48.4253 15.8696C46.384 13.9558 43.8989 13 41 13C40.9772 13 40.9484 13.001 40.9139 13.0029ZM42.5541 21.3541C43.4272 22.085 43.8333 22.9269 43.8333 23.9004V34.3496C43.8333 35.3231 43.4272 36.165 42.5541 36.8959C41.6806 37.627 40.6169 38 39.3333 38C38.9698 38 38.5813 37.9559 38.1667 37.8649V20.3851C38.5813 20.2941 38.9698 20.25 39.3333 20.25C40.6169 20.25 41.6806 20.623 42.5541 21.3541Z" fill="#F2C137" stroke="#F2C137"/>
<rect x="12" y="21" width="18" height="26" rx="4" fill="white"/>
<rect x="12" y="19" width="18" height="13" fill="white"/>
</svg>
