<svg width="25" height="25" viewBox="0 0 25 25" fill="none" xmlns="http://www.w3.org/2000/svg">
<path d="M24.9875 8.23776L23.9391 14.501C23.8098 15.1929 23.2804 15.6135 22.67 15.6214H7.38542L7.08196 17.4027H21.6492C22.4162 17.4634 22.9365 18.0293 22.9459 18.753C22.8901 19.5501 22.3468 20.0934 21.6492 20.1033H5.53694C4.66554 20.0217 4.14594 19.2984 4.24023 18.4944L4.92996 14.5871L3.88156 3.61211L0.901915 2.63534C0.173769 2.33428 -0.123419 1.64833 0.0466436 0.940257C0.329415 0.202306 1.00698 -0.134854 1.67441 0.0496173L5.48175 1.31376C5.99467 1.51398 6.28973 1.95119 6.3646 2.46298L6.58531 4.64648L23.8563 6.65759C24.6498 6.8366 25.0806 7.49115 24.9875 8.23776ZM9.48483 22.9386C9.48483 24.0771 8.59858 25 7.50529 25C6.41202 25 5.52577 24.0771 5.52577 22.9386C5.52577 21.8001 6.41204 20.8772 7.50529 20.8772C8.59856 20.8772 9.48483 21.8002 9.48483 22.9386ZM21.3026 22.9386C21.3026 24.0771 20.4163 25 19.323 25C18.2298 25 17.3435 24.0771 17.3435 22.9386C17.3435 21.8001 18.2298 20.8772 19.323 20.8772C20.4163 20.8772 21.3026 21.8002 21.3026 22.9386Z" fill="#F2C137"/>
</svg>
