<svg width="11" height="11" viewBox="0 0 11 11" fill="none" xmlns="http://www.w3.org/2000/svg">
<path d="M6.66925 5.26335L10.2042 1.88184C10.2997 1.79362 10.3759 1.6881 10.4283 1.57143C10.4807 1.45475 10.5083 1.32927 10.5095 1.20229C10.5106 1.07531 10.4853 0.949385 10.4351 0.831858C10.3848 0.714331 10.3105 0.607557 10.2166 0.517767C10.1227 0.427977 10.0111 0.356968 9.88819 0.308884C9.76529 0.2608 9.63362 0.236604 9.50084 0.237707C9.36806 0.23881 9.23684 0.265191 9.11484 0.315311C8.99283 0.36543 8.88249 0.438283 8.79024 0.52962L5.25426 3.91017L1.71928 0.52962C1.62703 0.438283 1.51669 0.36543 1.39469 0.315311C1.27268 0.265191 1.14146 0.23881 1.00868 0.237707C0.875906 0.236604 0.744227 0.2608 0.621331 0.308884C0.498435 0.356968 0.386784 0.427977 0.292891 0.517767C0.198999 0.607557 0.124747 0.714331 0.0744659 0.831858C0.0241853 0.949385 -0.00111605 1.07531 3.77569e-05 1.20229C0.00119157 1.32927 0.0287777 1.45475 0.0811864 1.57143C0.133595 1.6881 0.209777 1.79362 0.305286 1.88184L3.84027 5.26239L0.305286 8.6439C0.209777 8.73212 0.133595 8.83764 0.0811864 8.95431C0.0287777 9.07099 0.00119157 9.19648 3.77569e-05 9.32345C-0.00111605 9.45043 0.0241853 9.57636 0.0744659 9.69388C0.124747 9.81141 0.198999 9.91818 0.292891 10.008C0.386784 10.0978 0.498435 10.1688 0.621331 10.2169C0.744227 10.2649 0.875906 10.2891 1.00868 10.288C1.14146 10.2869 1.27268 10.2605 1.39469 10.2104C1.51669 10.1603 1.62703 10.0875 1.71928 9.99612L5.25426 6.61557L8.79024 9.99612C8.88249 10.0875 8.99283 10.1603 9.11484 10.2104C9.23684 10.2605 9.36806 10.2869 9.50084 10.288C9.63362 10.2891 9.76529 10.2649 9.88819 10.2169C10.0111 10.1688 10.1227 10.0978 10.2166 10.008C10.3105 9.91818 10.3848 9.81141 10.4351 9.69388C10.4853 9.57636 10.5106 9.45043 10.5095 9.32345C10.5083 9.19648 10.4807 9.07099 10.4283 8.95431C10.3759 8.83764 10.2997 8.73212 10.2042 8.6439L6.66925 5.26239V5.26335Z" fill="#FF6868"/>
</svg>
