<svg width="25" height="25" viewBox="0 0 25 25" fill="none" xmlns="http://www.w3.org/2000/svg">
<path d="M21.875 25H3.125C2.26237 25 1.52588 24.6948 0.915527 24.0845C0.305176 23.4741 0 22.7376 0 21.875V3.125C0 2.26237 0.305176 1.52588 0.915527 0.915527C1.52588 0.305176 2.26237 0 3.125 0H21.875C22.7376 0 23.4741 0.305176 24.0845 0.915527C24.6948 1.52588 25 2.26237 25 3.125V21.875C25 22.7376 24.6948 23.4741 24.0845 24.0845C23.4741 24.6948 22.7376 25 21.875 25ZM12.5 9.375C11.6374 9.375 10.9009 9.68018 10.2905 10.2905C9.68018 10.9009 9.375 11.6374 9.375 12.5C9.375 13.3626 9.68018 14.0991 10.2905 14.7095C10.9009 15.3198 11.6374 15.625 12.5 15.625C13.3626 15.625 14.0991 15.3198 14.7095 14.7095C15.3198 14.0991 15.625 13.3626 15.625 12.5C15.625 11.6374 15.3198 10.9009 14.7095 10.2905C14.0991 9.68018 13.3626 9.375 12.5 9.375ZM21.875 3.90625C21.875 3.69466 21.7977 3.51156 21.6431 3.35693C21.4884 3.20231 21.3053 3.125 21.0938 3.125H17.9688C17.7572 3.125 17.5741 3.20231 17.4194 3.35693C17.2648 3.51156 17.1875 3.69466 17.1875 3.90625V7.03125C17.1875 7.24284 17.2648 7.42594 17.4194 7.58057C17.5741 7.73519 17.7572 7.8125 17.9688 7.8125H21.0938C21.3053 7.8125 21.4884 7.73519 21.6431 7.58057C21.7977 7.42594 21.875 7.24284 21.875 7.03125V3.90625ZM21.875 11.7188C21.875 11.5072 21.7977 11.3241 21.6431 11.1694C21.4884 11.0148 21.3053 10.9375 21.0938 10.9375H19.5312C19.3197 10.9375 19.1366 11.0148 18.9819 11.1694C18.8273 11.3241 18.75 11.5072 18.75 11.7188V12.5C18.75 14.2253 18.1396 15.6982 16.9189 16.9189C15.6982 18.1396 14.2253 18.75 12.5 18.75C10.7747 18.75 9.30176 18.1396 8.08105 16.9189C6.86035 15.6982 6.25 14.2253 6.25 12.5V11.7188C6.25 11.5072 6.17269 11.3241 6.01807 11.1694C5.86344 11.0148 5.68034 10.9375 5.46875 10.9375H3.90625C3.69466 10.9375 3.51156 11.0148 3.35693 11.1694C3.20231 11.3241 3.125 11.5072 3.125 11.7188V21.0938C3.125 21.3053 3.20231 21.4884 3.35693 21.6431C3.51156 21.7977 3.69466 21.875 3.90625 21.875H21.0938C21.3053 21.875 21.4884 21.7977 21.6431 21.6431C21.7977 21.4884 21.875 21.3053 21.875 21.0938V11.7188Z" fill="#F2C137"/>
</svg>
