<svg width="16" height="25" viewBox="0 0 16 25" fill="none" xmlns="http://www.w3.org/2000/svg">
<path d="M8 0C3.5808 0 0 3.48499 0 7.80175C0 15.2658 8 25 8 25C8 25 16 15.2642 16 7.80175C16 3.48655 12.4192 0 8 0ZM8 12.1185C6.85426 12.1185 5.75546 11.6738 4.9453 10.8821C4.13514 10.0904 3.68 9.0167 3.68 7.89712C3.68 6.77754 4.13514 5.70381 4.9453 4.91215C5.75546 4.12049 6.85426 3.67573 8 3.67573C9.14574 3.67573 10.2445 4.12049 11.0547 4.91215C11.8649 5.70381 12.32 6.77754 12.32 7.89712C12.32 9.0167 11.8649 10.0904 11.0547 10.8821C10.2445 11.6738 9.14574 12.1185 8 12.1185Z" fill="#F2C137"/>
</svg>
