<svg width="25" height="25" viewBox="0 0 25 25" fill="none" xmlns="http://www.w3.org/2000/svg">
<path d="M22.3214 0H2.67857C1.96817 0 1.28686 0.282206 0.784535 0.784535C0.282206 1.28687 0 1.96817 0 2.67857L0 22.3214C0 23.0318 0.282206 23.7131 0.784535 24.2155C1.28686 24.7178 1.96817 25 2.67857 25H22.3214C23.0318 25 23.7131 24.7178 24.2155 24.2155C24.7178 23.7131 25 23.0318 25 22.3214V2.67857C25 1.96817 24.7178 1.28687 24.2155 0.784535C23.7131 0.282206 23.0318 0 22.3214 0ZM21.4068 17.1523L20.5698 20.7796C20.5272 20.964 20.4235 21.1285 20.2754 21.2464C20.1273 21.3643 19.9437 21.4285 19.7545 21.4286C10.8259 21.4286 3.57143 14.1903 3.57143 5.24554C3.57807 5.05807 3.64471 4.87768 3.76154 4.73091C3.87837 4.58415 4.03922 4.47876 4.22042 4.43025L7.84766 3.59319C7.90953 3.58011 7.97249 3.57282 8.03571 3.57143C8.19758 3.5796 8.35431 3.63095 8.48963 3.72015C8.62495 3.80935 8.73393 3.93314 8.80525 4.07868L10.4794 7.98493C10.5204 8.09025 10.5432 8.20177 10.5469 8.31473C10.5332 8.56252 10.4231 8.79511 10.24 8.96261L8.12556 10.6925C9.4067 13.4079 11.5921 15.5933 14.3075 16.8744L16.0374 14.76C16.2049 14.5769 16.4375 14.4668 16.6853 14.4531C16.7982 14.4568 16.9098 14.4796 17.0151 14.5206L20.9213 16.1948C21.0669 16.266 21.1908 16.3749 21.28 16.5103C21.3692 16.6456 21.4205 16.8024 21.4286 16.9643C21.4275 17.0275 21.4202 17.0905 21.4068 17.1523Z" fill="#F2C137"/>
</svg>
